<?xml version="1.0" encoding="UTF-8" standalone="no"?>
<!-- Created with Inkscape (http://www.inkscape.org/) -->

<svg
   xmlns:dc="http://purl.org/dc/elements/1.1/"
   xmlns:cc="http://creativecommons.org/ns#"
   xmlns:rdf="http://www.w3.org/1999/02/22-rdf-syntax-ns#"
   xmlns:svg="http://www.w3.org/2000/svg"
   xmlns="http://www.w3.org/2000/svg"
   xmlns:sodipodi="http://sodipodi.sourceforge.net/DTD/sodipodi-0.dtd"
   xmlns:inkscape="http://www.inkscape.org/namespaces/inkscape"
   width="256mm"
   height="256mm"
   viewBox="0 0 256 256"
   version="1.1"
   id="svg8"
   inkscape:version="0.92.4 (5da689c313, 2019-01-14)"
   sodipodi:docname="Rembrandt_R_white.svg">
  <defs
     id="defs2" />
  <sodipodi:namedview
     id="base"
     pagecolor="#ffffff"
     bordercolor="#666666"
     borderopacity="1.0"
     inkscape:pageopacity="0.0"
     inkscape:pageshadow="2"
     inkscape:zoom="1.4"
     inkscape:cx="240.65146"
     inkscape:cy="495.9278"
     inkscape:document-units="mm"
     inkscape:current-layer="layer1"
     showgrid="false"
     inkscape:window-width="3840"
     inkscape:window-height="2275"
     inkscape:window-x="-13"
     inkscape:window-y="707"
     inkscape:window-maximized="1" />
  <metadata
     id="metadata5">
    <rdf:RDF>
      <cc:Work
         rdf:about="">
        <dc:format>image/svg+xml</dc:format>
        <dc:type
           rdf:resource="http://purl.org/dc/dcmitype/StillImage" />
        <dc:title></dc:title>
      </cc:Work>
    </rdf:RDF>
  </metadata>
  <g
     inkscape:label="Layer 1"
     inkscape:groupmode="layer"
     id="layer1"
     transform="translate(0,-41)">
    <g
       style="clip-rule:evenodd;fill-rule:evenodd;stroke-linejoin:round;stroke-miterlimit:1.41420996;fill:#ffffff;stroke:#ffffff;stroke-opacity:1;fill-opacity:1"
       id="g826"
       transform="matrix(1.1849554,0,0,1.1849554,-23.200175,17.421381)">
      <path
         id="path815"
         style="fill:#ffffff;fill-rule:nonzero;stroke:#ffffff;stroke-opacity:1;fill-opacity:1"
         d="m 50,75.7 c 0,2.533 0.4,5 1.2,7.4 -0.8,1.6 -2.6,2.4 -5.4,2.4 -2.8,0 -5.2,-1 -7.2,-3 -2,-2 -3,-4.667 -3,-8 0,-7.6 3.233,-14.633 9.7,-21.1 6.467,-6.467 14.4,-11.4 23.8,-14.8 9.4,-3.4 18.9,-5.1 28.5,-5.1 44.8,0 67.2,16.067 67.2,48.2 0,8.4 -2.533,15.9 -7.6,22.5 -5.067,6.6 -10.967,11.433 -17.7,14.5 -6.733,3.067 -13.3,4.6 -19.7,4.6 7.467,0 14.1,1.667 19.9,5 5.8,3.333 10.533,7.667 14.2,13 3.667,5.333 7.067,11.233 10.2,17.7 3.133,6.467 6.233,12.967 9.3,19.5 3.067,6.533 6.4,12.467 10,17.8 3.6,5.333 8.233,9.667 13.9,13 5.667,3.333 12.167,5 19.5,5 3.333,0 6.067,-0.667 8.2,-2 2,0.133 3,1.267 3,3.4 0,4.533 -4.667,6.8 -14,6.8 -9.333,0 -17.667,-1.733 -25,-5.2 -7.333,-3.467 -13.267,-8 -17.8,-13.6 -4.533,-5.6 -8.633,-11.767 -12.3,-18.5 -3.667,-6.733 -7.1,-13.433 -10.3,-20.1 -3.2,-6.667 -6.567,-12.8 -10.1,-18.4 -3.533,-5.6 -8.033,-10.133 -13.5,-13.6 -5.467,-3.467 -11.733,-5.2 -18.8,-5.2 -3.467,0 -5.2,-1.867 -5.2,-5.6 0,-1.6 0.533,-2.8 1.6,-3.6 1.067,-0.8 2.267,-1.2 3.6,-1.2 12.4,0 22.2,-3.633 29.4,-10.9 7.2,-7.267 10.8,-15.567 10.8,-24.9 0,-13.067 -4.4,-22.733 -13.2,-29 -8.8,-6.267 -19.767,-9.4 -32.9,-9.4 -13.133,0 -24.8,3.1 -35,9.3 C 55.1,58.8 50,66.5 50,75.7 Z m 23.2,-5.8 c 0,-4 1,-7.033 3,-9.1 2,-2.067 4.4,-3.1 7.2,-3.1 2.8,0 5.533,0.933 8.2,2.8 v 88.2 c 0,14 -2.633,25.133 -7.9,33.4 -5.267,8.267 -13.2,12.4 -23.8,12.4 -10.6,0 -18.567,-2.433 -23.9,-7.3 -5.333,-4.867 -8,-11.3 -8,-19.3 0,-10.267 3.333,-15.4 10,-15.4 1.6,0 3,0.4 4.2,1.2 1.2,0.8 2.2,1.933 3,3.4 -1.067,2.8 -1.6,6.933 -1.6,12.4 0,5.467 1.433,9.633 4.3,12.5 2.867,2.867 6.5,4.3 10.9,4.3 9.6,0 14.4,-8.533 14.4,-25.6 z"
         inkscape:connector-curvature="0" />
    </g>
  </g>
</svg>
